#!OML:ASF E:/inclinewalkrobotboard/Project1/Captureday1/Session1/subject1.ASF
:FULLY-SPECIFIED
:DEGREES
88
root 0 0 0 1.2576522867692188 -3.591186514572974 1.8995513960381731
lowerback 12.042963957020152 0.8481602984824577 -0.10757667446616104
upperback -4.409418734354158 1.0652192070275004 -0.6023720957811644
thorax -11.573016018621015 0.48718625189079257 -0.8027394925726401
lowerneck -5.962159539253384 1.728177321241535 4.699926723248658
upperneck 18.39373861213905 3.2869449739306775 -8.468621953942428
head 6.731605897612847 1.2126611320242873 -3.252930957917216
rclavicle -3.8674481144913795E-16 -2.0995611985642727E-15
rhumerus 20.78740492105063 14.829757950934807 -47.294626715288885
rradius 72.87558437921601
rwrist 27.418513485535925
rhand -34.55933006610731 -57.65182751303941
rfingers 7.12502000000002
rthumb -7.752680934820354 -87.6070141486182
lclavicle -2.2363724395603095E-15 4.301239007987522E-16
lhumerus 21.89075090886385 -13.061192643511005 44.452461416092774
lradius 70.74027307013854
lwrist -22.500475863433863
lhand -45.09546516023785 -70.83703361469938
lfingers 7.125020000000016
lthumb -17.856935228642165 -41.89379854572084
rfemur -25.61469573469978 -2.3757943064870615 16.878744264170177
rtibia 54.52893700048498
rfoot -31.331959592905136 -17.850055590727457
rtoes -19.015796284496336
lfemur -27.994631430923196 2.8365466547224467 -18.347624694021263
ltibia 54.79734700684814
lfoot -33.210452603122725 -3.5362410932551067
ltoes -20.639151332691366
89
root 0 0 0 1.2581908919405924 -3.5916714688361546 1.8997678381345167
lowerback 12.042906071445895 0.8482634322156508 -0.10767080991431677
upperback -4.409474869028082 1.0653031268319726 -0.6024607500900615
thorax -11.573037161908266 0.487242492280766 -0.8027444590382828
lowerneck -5.9619468863261 1.7282882638234704 4.699911310750417
upperneck 18.393728472416935 3.287115055959026 -8.468643794074254
head 6.731555989439439 1.212744709227036 -3.2529046533937045
rclavicle -3.7657005488222254E-16 -2.111851615705952E-15
rhumerus 20.789829073035477 14.833598829303417 -47.29488999490711
rradius 72.87517601976343
rwrist 27.418017738031057
rhand -34.55805637239104 -57.65181155615391
rfingers 7.12502000000002
rthumb -7.751579697867987 -87.60808875730282
lclavicle -2.2009471509542773E-15 4.176067468643136E-16
lhumerus 21.889849195134197 -13.057968323055027 44.45107968612031
lradius 70.73839002596188
lwrist -22.50272270864202
lhand -45.095780851964456 -70.84173694051152
lfingers 7.125020000000016
lthumb -17.857406837699838 -41.89855927572741
rfemur -25.616606097879647 -2.3710530375597365 16.876543251008393
rtibia 54.52146275637577
rfoot -31.336984687973814 -17.853730702958423
rtoes -19.029841267478822
lfemur -27.991116758610936 2.8336569933229847 -18.344095099625658
ltibia 54.78975751380228
lfoot -33.217601334449334 -3.5332689386508096
ltoes -20.650905066533777
90
root 0 0 0 1.2582382158084005 -3.591845651565617 1.8996524450084582
lowerback 12.042867302860323 0.8482883628845224 -0.10761906362403517
upperback -4.409500034559886 1.065342628099616 -0.6024385430373779
thorax -11.573039698899313 0.4872615937390513 -0.8027596377209614
lowerneck -5.961892594913818 1.728317108396124 4.699912594362769
upperneck 18.39374025793211 3.2871561272913343 -8.468676510117303
head 6.731548379757972 1.2127588981078938 -3.2529104783742557
rclavicle -3.7662190099930745E-16 -2.1120942752082754E-15
rhumerus 20.789738310996206 14.833349796776796 -47.29465162771546
rradius 72.87520899645926
rwrist 27.41823311252354
rhand -34.55811629179038 -57.65194503287886
rfingers 7.12502000000002
rthumb -7.75161657117674 -87.60827657780476
lclavicle -2.2025588556600895E-15 4.193092807623575E-16
lhumerus 21.890136008446007 -13.058182923276766 44.45090007861603
lradius 70.73869235124495
lwrist -22.502772316324005
lhand -45.095904156159655 -70.8422319141763
lfingers 7.125020000000016
lthumb -17.857509730118835 -41.89916168628277
rfemur -25.61536097270288 -2.371055406014614 16.876874339305118
rtibia 54.52064125143326
rfoot -31.338431334942793 -17.852943172710045
rtoes -19.033944260191923
lfemur -27.98923242416133 2.832111949723533 -18.342048745545924
ltibia 54.78512191438213
lfoot -33.218353771343615 -3.5324269147480614
ltoes -20.65731832856342
91
root 0 0 0 1.2581828476395254 -3.591813080116158 1.8996095464422678
lowerback 12.042793627954754 0.8483005853801779 -0.10760737448746627
upperback -4.409497638638922 1.0653583623967753 -0.6024244282530432
thorax -11.572996497810223 0.48726952519016875 -0.8027516446629428
lowerneck -5.961835770381159 1.7283517360398728 4.699973495721706
upperneck 18.393801689339927 3.287208472212397 -8.468764219045399
head 6.7315571717579274 1.2127783885290664 -3.2529407199842035
rclavicle -3.777944515232451E-16 -2.1124784980250945E-15
rhumerus 20.789202123855155 14.83260327263856 -47.29413634323614
rradius 72.87480645833821
rwrist 27.41879288353104
rhand -34.55815249658242 -57.65215519910044
rfingers 7.12502000000002
rthumb -7.75165973436674 -87.60841743424074
lclavicle -2.203093330140953E-15 4.1912113045405896E-16
lhumerus 21.89004653982755 -13.057905823108523 44.450773650816316
lradius 70.738565371009
lwrist -22.502934937576192
lhand -45.09592648801488 -70.84257972095497
lfingers 7.125020000000016
lthumb -17.857534320907977 -41.89953655041448
rfemur -25.613842414254023 -2.371274678286185 16.876725978420716
rtibia 54.52160263279154
rfoot -31.33728960989165 -17.85163062440202
rtoes -19.036090247430415
lfemur -27.987402941881875 2.831985596809711 -18.342193883881986
ltibia 54.78548655706155
lfoot -33.216629939141065 -3.5342024113374126
ltoes -20.659078817639735
92
root 0 0 0 1.2540881201104939 -3.8350344935161145 1.8298285767279658
lowerback 12.031700283132263 0.890289619208599 -0.06225503604583271
upperback -4.45167671207431 1.120396464855226 -0.6073951541436292
thorax -11.615418865058949 0.5147118526452659 -0.8323041731591632
lowerneck -5.840319063014989 1.7968762167015935 4.781323602734025
upperneck 18.396567373721652 3.386279264897296 -8.632287799659238
head 6.705429376565354 1.2516271475980574 -3.3125674492935255
rclavicle 1.2085849879183628E-16 -3.222793935178493E-15
rhumerus 20.730891986494754 14.203805773901225 -46.12720112747977
rradius 72.98944204765698
rwrist 28.630434413178136
rhand -34.88987766198396 -59.114762427352076
rfingers 7.125020000000026
rthumb -8.099249375807561 -89.20226872736802
lclavicle -2.5732177674818543E-15 3.163850445639743E-16
lhumerus 22.56728021066543 -12.509334318465257 43.48666998622103
lradius 71.01002773597415
lwrist -23.301636529162025
lhand -45.47226948033736 -73.3171424065329
lfingers 7.125020000000025
lthumb -18.213530332719735 -44.6632382935521
rfemur -25.39170031478172 -2.5892053038577956 17.114785207111254
rtibia 54.926559851195826
rfoot -32.661884151137755 -17.517113502369984
rtoes -19.954845397723755
lfemur -28.52890437569906 2.804673042697957 -18.650744147544604
ltibia 55.38140251610211
lfoot -34.23559410083937 -3.590385020950433
ltoes -20.515610979550875
93
root 0 0 0 1.2607555881962313 -3.565561682665124 1.9075745990491075
lowerback 12.036758876673213 0.8433946230147178 -0.11687672357916823
upperback -4.408839249548545 1.058432533302359 -0.6020129540933025
thorax -11.568281657130244 0.4839142498446474 -0.7969380380520001
lowerneck -5.969893458836431 1.7268490760793946 4.69346230157543
upperneck 18.40641567525472 3.2848236225670027 -8.455197731154149
head 6.737672307106003 1.2117919497934868 -3.2469713755558507
rclavicle -2.9616632695402923E-16 -2.041153512827083E-15
rhumerus 20.726948106122833 14.779463143363538 -47.30969001189834
rradius 72.82786303629567
rwrist 27.41339025778008
rhand -34.54266271198253 -57.57544737636182
rfingers 7.12502000000002
rthumb -7.737130533438597 -87.51832951736687
lclavicle -2.0253665384763134E-15 4.9848119410998765E-16
lhumerus 21.841017368734498 -13.042142012286861 44.48024448664437
lradius 70.70425931321203
lwrist -22.497016934024373
lhand -45.05658884776801 -70.7146501647714
lfingers 7.125020000000016
lthumb -17.8203019912259 -41.758156572244815
rfemur -25.597545804171794 -2.3453371547312614 16.82329311241613
rtibia 54.43502257954051
rfoot -31.116409432958374 -17.910281862489963
rtoes -19.0136447581569
lfemur -27.930608441588472 2.8591839149759006 -18.400992534312362
ltibia 54.71352874606339
lfoot -33.141555600249006 -3.5725563730061864
ltoes -20.63759588900354
94
root 0 0 0 1.2574964295868116 -3.5819334146426987 1.9039847309037619
lowerback 12.043684324360209 0.8465779350752285 -0.11020630812856258
upperback -4.408795600752675 1.0629088752538418 -0.6029823967655888
thorax -11.572804293795885 0.4860514169035786 -0.8016653920751464
lowerneck -5.965569375445907 1.726803096326712 4.698265716063243
upperneck 18.39428916167277 3.2848677877297554 -8.46461529015257
head 6.732495957390923 1.2118964206517675 -3.2514924277540134
rclavicle -3.817880569973553E-16 -2.1077964013618476E-15
rhumerus 20.771131967702807 14.812883796325233 -47.290688125998884
rradius 72.86010086086978
rwrist 27.424319082861082
rhand -34.55391681065636 -57.638066300606745
rfingers 7.12502000000002
rthumb -7.747630500091512 -87.59147047569388
lclavicle -2.1980964221749177E-15 4.171788478446631E-16
lhumerus 21.886815522714222 -13.063381309070927 44.45703182134426
lradius 70.73749792461639
lwrist -22.496083882621917
lhand -45.09327243705837 -70.82314194829641
lfingers 7.125020000000016
lthumb -17.85500710116144 -41.879376135334724
rfemur -25.644341297135313 -2.3641309571261955 16.868432328296105
rtibia 54.50854373215848
rfoot -31.318590963766304 -17.8694171290509
rtoes -18.99454737206784
lfemur -27.960928951551818 2.83442842217942 -18.3499169890181
ltibia 54.78654611831588
lfoot -33.20663236239089 -3.5468600159868573
ltoes -20.67169788774842
